# Blender 4.2.1 LTS
# www.blender.org
mtllib arco1.mtl
o Cube
v -4.031376 -0.124775 0.915715
v -4.031376 2.157817 0.915715
v -4.031376 -0.124775 -1.084285
v -4.031376 2.157817 -1.084285
v 4.971182 -0.124775 0.915715
v 4.971182 2.157817 0.915715
v 4.971182 -0.124775 -1.084285
v 4.971182 2.157817 -1.084285
v -1.750160 -0.124775 -1.084285
v -1.750160 2.157817 -1.084285
v -1.750160 -0.124775 0.915715
v -1.750160 2.157817 0.915715
v 2.755355 2.157817 -1.084285
v 2.755355 -0.124775 0.915715
v 2.755355 -0.124775 -1.084285
v 2.755355 2.157817 0.915715
v -4.031376 8.934659 0.915715
v -4.031376 8.934659 -1.084285
v 2.755355 8.934659 -1.084285
v 4.971182 8.934659 -1.084285
v 4.971182 8.934659 0.915715
v -1.750160 8.934659 0.915715
v -1.750160 8.934659 -1.084285
v 2.755355 8.934659 0.915715
vn -1.0000 -0.0000 -0.0000
vn -0.0000 -0.0000 -1.0000
vn 1.0000 -0.0000 -0.0000
vn -0.0000 -0.0000 1.0000
vn -0.0000 -1.0000 -0.0000
vt 0.375000 0.000000
vt 0.625000 0.000000
vt 0.625000 0.250000
vt 0.375000 0.250000
vt 0.625000 0.438467
vt 0.375000 0.500000
vt 0.375000 0.438467
vt 0.625000 0.500000
vt 0.625000 0.750000
vt 0.375000 0.750000
vt 0.625000 0.936651
vt 0.375000 1.000000
vt 0.375000 0.936651
vt 0.313467 0.750000
vt 0.313467 0.500000
vt 0.188349 0.500000
vt 0.188349 0.750000
vt 0.125000 0.750000
vt 0.125000 0.500000
vt 0.625000 1.000000
vt 0.375000 0.313349
vt 0.375000 0.811533
vt 0.625000 0.313349
vt 0.811651 0.500000
vt 0.811651 0.750000
vt 0.686533 0.750000
vt 0.686533 0.500000
vt 0.625000 0.811533
s 0
usemtl 
f 1/1/1 2/2/1 4/3/1 3/4/1
f 13/5/2 7/6/2 15/7/2
f 7/6/3 8/8/3 6/9/3 5/10/3
f 12/11/4 1/12/4 11/13/4
f 7/6/5 14/14/5 15/15/5
f 4/3/1 2/2/1 17/2/1 18/3/1
f 9/16/5 11/17/5 1/18/5
f 9/16/5 1/18/5 3/19/5
f 12/11/4 2/20/4 1/12/4
f 4/3/2 9/21/2 3/4/2
f 6/9/4 14/22/4 5/10/4
f 10/23/2 4/3/2 18/3/2 23/23/2
f 13/5/2 8/8/2 7/6/2
f 7/6/5 5/10/5 14/14/5
f 12/11/4 17/20/4 2/20/4
f 10/24/3 22/25/3 12/25/3
f 8/8/2 13/5/2 19/5/2 20/8/2
f 16/26/1 19/27/1 13/27/1
f 6/9/4 24/28/4 16/28/4
f 8/8/3 21/9/3 6/9/3
f 4/3/2 10/23/2 9/21/2
f 6/9/4 16/28/4 14/22/4
f 12/11/4 22/11/4 17/20/4
f 10/24/3 23/24/3 22/25/3
f 16/26/1 24/26/1 19/27/1
f 6/9/4 21/9/4 24/28/4
f 8/8/3 20/8/3 21/9/3
f 15/7/1 14/14/1 13/5/1
f 16/26/1 13/27/1 14/14/1
f 11/13/3 10/23/3 12/11/3
f 11/13/3 9/16/3 10/23/3
