# 3ds Max Wavefront OBJ Exporter v0.99 - (c)2007 guruware
# File Created: 27.10.2024 22:59:33

mtllib chopper_pata_derecha.mtl

#
# object pata_derecha
#

v  0.0040 0.3200 0.4450
v  -0.1980 0.3200 0.2867
v  0.2346 0.1604 0.2831
v  -0.1499 0.1871 0.2449
v  0.1964 0.0919 0.2517
v  -0.4113 -0.1656 -0.1224
v  -0.3509 -0.0043 -0.1176
v  -0.1743 -0.0177 -0.5295
v  -0.1743 -0.0177 0.2488
v  -0.2154 -0.1841 0.3120
v  -0.2064 -0.2438 0.2875
v  -0.3867 -0.2267 -0.1284
v  -0.1205 -0.2453 0.0570
v  0.0828 -0.2656 0.0566
v  0.1937 -0.2835 0.2805
v  0.3068 -0.2946 -0.1057
v  0.1404 -0.2710 -0.1184
v  -0.2120 -0.2366 -0.1184
v  -0.1203 -0.2453 -0.3010
v  -0.2064 -0.2438 -0.5466
v  0.1937 -0.2835 -0.4964
v  0.0830 -0.2656 -0.3010
v  0.3427 -0.2370 -0.1035
v  0.2197 -0.2254 0.3162
v  0.2197 -0.2254 -0.5282
v  -0.2154 -0.1841 -0.5828
v  0.1972 -0.0740 -0.4805
v  0.1972 -0.0740 0.2776
v  0.3081 -0.0953 -0.0993
v  0.3002 0.0611 -0.1010
v  -0.3152 0.1932 -0.1113
v  -0.1173 -0.7243 -0.2981
v  -0.2078 -0.7243 -0.1185
v  -0.1006 -0.5402 -0.2630
v  -0.1731 -0.5402 -0.1192
v  0.0604 -0.5402 -0.2630
v  0.0838 -0.7243 -0.2981
v  -0.1007 -0.5402 0.0190
v  -0.1174 -0.7243 0.0541
v  0.0602 -0.5402 0.0187
v  0.0836 -0.7243 0.0537
v  0.1405 -0.7243 -0.1185
v  0.1058 -0.5402 -0.1192
v  -0.1325 -0.7890 -0.3123
v  -0.2380 -0.7890 -0.1180
v  0.1014 -0.7896 -0.3105
v  0.1674 -0.7896 -0.1172
v  0.1012 -0.7896 0.0825
v  -0.1328 -0.7890 0.0830
v  -0.4057 -1.0388 -0.0995
v  -0.3502 -1.0568 0.3351
v  -0.4508 -1.2623 0.2454
v  -0.4565 -1.2623 -0.0995
v  -0.3602 -1.2623 -0.3743
v  -0.3058 -1.0388 -0.3781
v  -0.0401 -1.2623 -0.5185
v  -0.0401 -1.0388 -0.4870
v  0.3254 -1.0388 -0.0995
v  0.2699 -1.0568 0.3351
v  0.2255 -1.0388 -0.3781
v  0.2800 -1.2623 -0.3743
v  0.3762 -1.2623 -0.0995
v  0.3697 -1.2623 0.2450
v  -0.3363 -1.3324 -0.3255
v  -0.4282 -1.3324 -0.0987
v  -0.0401 -1.3324 -0.4601
v  0.2560 -1.3324 -0.3255
v  0.3479 -1.3324 -0.0986
v  0.3515 -1.3324 0.2428
v  -0.4328 -1.3324 0.2426
v  -0.1725 -0.4779 -0.1192
v  -0.1003 -0.4779 -0.2624
v  0.0599 -0.4779 -0.2624
v  -0.1004 -0.4779 0.0184
v  0.0598 -0.4779 0.0180
v  0.1051 -0.4779 -0.1192
v  0.3026 -1.2623 0.4743
v  0.2638 -1.3324 0.4992
v  0.1143 -1.3324 0.6579
v  0.1307 -0.9680 0.3969
v  0.0812 -1.2623 0.7149
v  -0.0401 -0.9500 0.4122
v  -0.2090 -0.9674 0.3973
v  -0.1600 -1.2623 0.7158
v  -0.3829 -1.2623 0.4743
v  -0.1932 -1.3324 0.6586
v  -0.3443 -1.3324 0.4992
v  -0.0401 -1.2623 0.4660
v  -0.0401 -1.3324 0.3592
v  -0.2327 -1.3618 -0.1823
v  -0.3093 -1.3328 -0.2434
v  -0.2619 -1.3328 -0.2779
v  -0.2034 -1.3328 -0.2779
v  -0.1560 -1.3328 -0.2434
v  -0.1379 -1.3328 -0.1877
v  -0.1560 -1.3328 -0.1320
v  -0.2034 -1.3328 -0.0976
v  -0.2619 -1.3328 -0.0976
v  -0.3093 -1.3328 -0.1320
v  -0.3274 -1.3328 -0.1877
v  0.1533 -1.3618 -0.1823
v  0.0766 -1.3328 -0.2434
v  0.1240 -1.3328 -0.2779
v  0.1826 -1.3328 -0.2779
v  0.2300 -1.3328 -0.2434
v  0.2481 -1.3328 -0.1877
v  0.2300 -1.3328 -0.1320
v  0.1826 -1.3328 -0.0976
v  0.1240 -1.3328 -0.0976
v  0.0766 -1.3328 -0.1320
v  0.0585 -1.3328 -0.1877
# 111 vertices

vn -0.3595 -0.7320 0.5787
vn -0.5908 -0.6436 0.4865
vn -0.1338 -0.9007 0.4134
vn -0.5944 -0.0519 0.8025
vn 0.5141 -0.0540 0.8560
vn -0.9835 0.1809 -0.0001
vn -0.9606 0.2778 -0.0003
vn -0.5001 0.3245 -0.8029
vn -0.5689 0.2557 0.7816
vn -0.5482 0.1505 0.8227
vn -0.3240 -0.8849 0.3346
vn -0.5224 -0.8527 -0.0091
vn -0.2598 -0.9280 0.2670
vn 0.0545 -0.9650 0.2564
vn 0.1720 -0.9313 0.3211
vn 0.3342 -0.9425 -0.0028
vn 0.3644 -0.9312 0.0010
vn -0.4529 -0.8916 -0.0005
vn -0.2649 -0.9278 -0.2628
vn -0.3216 -0.8802 -0.3491
vn 0.1904 -0.9333 -0.3046
vn 0.0627 -0.9635 -0.2602
vn 0.3343 -0.9425 -0.0028
vn 1.0000 -0.0028 -0.0021
vn 0.5818 0.0704 0.8103
vn 1.0000 -0.0028 -0.0022
vn 0.6322 0.0500 -0.7732
vn -0.5203 0.1603 -0.8388
vn 0.6255 0.2386 -0.7429
vn 0.5504 0.2212 0.8051
vn 0.9893 0.1462 0.0034
vn 0.9941 -0.1080 -0.0032
vn 0.9893 0.1462 0.0033
vn -0.9997 -0.0260 0.0012
vn -0.4920 0.2406 -0.8367
vn -0.9652 0.2614 -0.0003
vn -0.5220 0.1641 -0.8370
vn -0.9890 0.1476 -0.0010
vn 0.5647 0.1794 -0.8056
vn 0.5374 0.2555 -0.8037
vn -0.5059 0.1645 0.8467
vn -0.4835 0.2967 0.8235
vn 0.5491 0.1791 0.8164
vn 0.5298 0.3138 0.7879
vn 0.9693 0.2457 -0.0001
vn 0.9891 0.1470 0.0001
vn -0.4193 0.5337 -0.7344
vn -0.8383 0.5452 -0.0064
vn 0.4934 0.5006 -0.7113
vn 0.8710 0.4904 -0.0308
vn 0.5623 0.7371 0.3748
vn -0.5040 0.7689 0.3934
vn -0.9043 0.4224 -0.0616
vn -0.8233 0.5237 0.2188
vn -0.9793 0.1653 0.1170
vn -0.9847 0.1381 -0.1063
vn -0.7284 -0.0174 -0.6850
vn -0.6728 0.2913 -0.6800
vn -0.0001 -0.0969 -0.9953
vn -0.0053 0.2378 -0.9713
vn 0.9175 0.3913 -0.0714
vn 0.8414 0.4883 0.2316
vn 0.6759 0.2704 -0.6856
vn 0.7283 -0.0174 -0.6850
vn -0.0000 -0.0969 -0.9953
vn -0.0053 0.2377 -0.9713
vn 0.9849 0.1369 -0.1056
vn 0.9796 0.1634 0.1172
vn -0.3839 -0.8500 -0.3606
vn -0.1928 -0.9807 -0.0317
vn -0.0000 -0.9746 -0.2240
vn 0.3839 -0.8501 -0.3605
vn 0.1930 -0.9807 -0.0315
vn 0.3293 -0.9432 0.0446
vn -0.3295 -0.9431 0.0443
vn -0.9910 -0.1336 -0.0009
vn -0.4529 -0.8916 -0.0003
vn -0.5401 -0.1495 -0.8282
vn -0.2649 -0.9277 -0.2629
vn 0.5507 -0.1632 -0.8186
vn -0.5242 -0.1498 0.8383
vn 0.0546 -0.9650 0.2564
vn 0.5349 -0.1630 0.8290
vn 0.3644 -0.9312 0.0009
vn 0.9913 -0.1315 0.0001
vn 0.0627 -0.9635 -0.2603
vn 0.8133 0.2493 0.5258
vn 0.9796 0.1633 0.1172
vn 0.3568 -0.9011 0.2464
vn -0.0544 -0.8573 0.5119
vn 0.4063 0.7241 0.5573
vn -0.0821 0.2278 0.9702
vn -0.0820 0.2277 0.9703
vn -0.0544 -0.8574 0.5118
vn 0.8132 0.2493 0.5258
vn -0.0001 0.7643 0.6449
vn -0.0819 0.2277 0.9703
vn -0.4148 0.7355 0.5357
vn 0.0805 0.2312 0.9696
vn -0.4149 0.7354 0.5357
vn -0.8112 0.2515 0.5279
vn 0.0806 0.2312 0.9696
vn -0.8233 0.5237 0.2189
vn 0.0546 -0.8574 0.5117
vn -0.3562 -0.9011 0.2473
vn -0.0001 0.7643 0.6448
vn 0.0036 -0.5053 0.8629
vn -0.0000 -0.9995 0.0323
vn -0.4149 0.7355 0.5357
vn -0.0001 0.7642 0.6449
vn 0.0805 0.2311 0.9696
vn -0.1927 -0.9807 -0.0317
vn -0.0000 -0.9746 -0.2239
vn -0.3838 -0.8501 -0.3606
vn 0.1930 -0.9807 -0.0314
vn 0.3292 -0.9432 0.0446
vn 0.3838 -0.8501 -0.3605
vn -0.3562 -0.9011 0.2474
vn 0.0546 -0.8574 0.5118
vn 0.3291 -0.9432 0.0446
vn 0.3569 -0.9011 0.2463
vn -0.0000 -1.0000 0.0083
vn -0.2277 -0.9589 -0.1692
vn -0.0854 -0.9604 -0.2652
vn 0.0855 -0.9604 -0.2652
vn 0.2276 -0.9589 -0.1693
vn 0.2923 -0.9563 -0.0041
vn 0.2461 -0.9534 0.1746
vn 0.0960 -0.9514 0.2925
vn -0.0959 -0.9514 0.2925
vn -0.2461 -0.9534 0.1746
vn -0.2923 -0.9563 -0.0041
vn -0.2278 -0.9589 -0.1691
vn -0.0852 -0.9604 -0.2653
vn 0.0854 -0.9604 -0.2652
vn 0.2277 -0.9589 -0.1692
vn 0.0964 -0.9515 0.2923
vn -0.0964 -0.9515 0.2923
vn -0.2461 -0.9534 0.1744
# 139 vertex normals

vt 0.0767 0.5239 0.0000
vt 0.1153 0.5166 0.0000
vt 0.0556 0.4945 0.0000
vt 0.1265 0.5000 0.0000
vt 0.0667 0.4872 0.0000
vt 0.1718 0.4598 0.0000
vt 0.1725 0.4799 0.0000
vt 0.2288 0.4792 0.0000
vt 0.1283 0.4772 0.0000
vt 0.1283 0.4598 0.0000
vt 0.1283 0.4537 0.0000
vt 0.1718 0.4537 0.0000
vt 0.1283 0.4345 0.0000
vt 0.0779 0.4345 0.0000
vt 0.0779 0.4537 0.0000
vt 0.0360 0.4537 0.0000
vt 0.0360 0.4345 0.0000
vt 0.1718 0.4345 0.0000
vt 0.2289 0.4345 0.0000
vt 0.2289 0.4537 0.0000
vt 0.2581 0.4537 0.0000
vt 0.2581 0.4345 0.0000
vt 0.3026 0.4537 0.0000
vt 0.3026 0.4345 0.0000
vt 0.0360 0.4598 0.0000
vt 0.0779 0.4598 0.0000
vt 0.3026 0.4598 0.0000
vt 0.2581 0.4598 0.0000
vt 0.2289 0.4598 0.0000
vt 0.2584 0.4770 0.0000
vt 0.0751 0.4732 0.0000
vt 0.0364 0.4647 0.0000
vt 0.3021 0.4634 0.0000
vt 0.3026 0.4706 0.0000
vt 0.0360 0.4714 0.0000
vt 0.1718 0.5058 0.0000
vt 0.5944 0.1572 0.0000
vt 0.5771 0.1572 0.0000
vt 0.5924 0.1721 0.0000
vt 0.5772 0.1721 0.0000
vt 0.6039 0.1721 0.0000
vt 0.6078 0.1572 0.0000
vt 0.5528 0.1721 0.0000
vt 0.5516 0.1572 0.0000
vt 0.5227 0.1721 0.0000
vt 0.5230 0.1572 0.0000
vt 0.5025 0.1572 0.0000
vt 0.5035 0.1721 0.0000
vt 0.4918 0.1721 0.0000
vt 0.4890 0.1572 0.0000
vt 0.5962 0.1520 0.0000
vt 0.5776 0.1520 0.0000
vt 0.6121 0.1519 0.0000
vt 0.4864 0.1519 0.0000
vt 0.5009 0.1519 0.0000
vt 0.5227 0.1519 0.0000
vt 0.5513 0.1520 0.0000
vt 0.5885 0.1135 0.0000
vt 0.5600 0.1120 0.0000
vt 0.5698 0.0954 0.0000
vt 0.5880 0.0954 0.0000
vt 0.6091 0.0954 0.0000
vt 0.6122 0.1135 0.0000
vt 0.6328 0.0954 0.0000
vt 0.6328 0.1135 0.0000
vt 0.4823 0.1135 0.0000
vt 0.5108 0.1120 0.0000
vt 0.4586 0.1135 0.0000
vt 0.4617 0.0954 0.0000
vt 0.4386 0.0954 0.0000
vt 0.4386 0.1135 0.0000
vt 0.4828 0.0954 0.0000
vt 0.5010 0.0954 0.0000
vt 0.6078 0.0916 0.0000
vt 0.5882 0.0916 0.0000
vt 0.6328 0.0916 0.0000
vt 0.4386 0.0916 0.0000
vt 0.4630 0.0916 0.0000
vt 0.4826 0.0916 0.0000
vt 0.5017 0.0916 0.0000
vt 0.5692 0.0916 0.0000
vt 0.5768 0.1771 0.0000
vt 0.5754 0.1966 0.0000
vt 0.5917 0.1771 0.0000
vt 0.5917 0.1959 0.0000
vt 0.6029 0.1771 0.0000
vt 0.6040 0.1943 0.0000
vt 0.5528 0.1771 0.0000
vt 0.5516 0.1959 0.0000
vt 0.5247 0.1943 0.0000
vt 0.5231 0.1771 0.0000
vt 0.5051 0.1938 0.0000
vt 0.5043 0.1771 0.0000
vt 0.4922 0.1943 0.0000
vt 0.4928 0.1771 0.0000
vt 0.0402 0.9277 0.0000
vt 0.0272 0.9007 0.0000
vt 0.0180 0.9281 0.0000
vt 0.0137 0.9241 0.0000
vt 0.0233 0.8947 0.0000
vt 0.0573 0.8788 0.0000
vt 0.0563 0.9265 0.0000
vt 0.0567 0.8861 0.0000
vt 0.0701 0.9243 0.0000
vt 0.0838 0.9264 0.0000
vt 0.0836 0.8863 0.0000
vt 0.1133 0.9005 0.0000
vt 0.1001 0.9277 0.0000
vt 0.1223 0.9290 0.0000
vt 0.0833 0.8793 0.0000
vt 0.1174 0.8942 0.0000
vt 0.1265 0.9254 0.0000
vt 0.0700 0.8947 0.0000
vt 0.0697 0.8873 0.0000
vt 0.5354 0.1206 0.0000
vt 0.5221 0.1192 0.0000
vt 0.5485 0.1192 0.0000
vt 0.0421 0.8159 0.0000
vt 0.0155 0.8238 0.0000
vt 0.0158 0.8469 0.0000
vt 0.0421 0.8714 0.0000
vt 0.0220 0.8623 0.0000
vt 0.0684 0.8469 0.0000
vt 0.0686 0.8238 0.0000
vt 0.0621 0.8623 0.0000
vt 0.1288 0.8711 0.0000
vt 0.1232 0.8874 0.0000
vt 0.1573 0.8817 0.0000
vt 0.1462 0.8554 0.0000
vt 0.1907 0.8869 0.0000
vt 0.1851 0.8711 0.0000
vt 0.1678 0.8554 0.0000
vt 0.3474 0.0870 0.0000
vt 0.3554 0.0980 0.0000
vt 0.3603 0.0912 0.0000
vt 0.3603 0.0828 0.0000
vt 0.3554 0.0760 0.0000
vt 0.3474 0.0734 0.0000
vt 0.3394 0.0760 0.0000
vt 0.3344 0.0828 0.0000
vt 0.3344 0.0912 0.0000
vt 0.3394 0.0980 0.0000
vt 0.3474 0.1006 0.0000
# 143 texture coords

o pata_derecha
g pata_derecha
usemtl cho_000_m00_001
s 1
f 1/1/1 2/2/2 3/3/3 
f 4/4/4 3/3/3 2/2/2 
f 5/5/5 3/3/3 4/4/4 
f 6/6/6 7/7/7 8/8/8 
f 9/9/9 7/7/7 6/6/6 
f 10/10/10 9/9/9 6/6/6 
f 11/11/11 10/10/10 6/6/6 
f 12/12/12 11/11/11 6/6/6 
f 13/13/13 11/11/11 12/12/12 
f 13/13/13 14/14/14 11/11/11 
f 14/14/14 15/15/15 11/11/11 
f 11/11/11 15/15/15 10/10/10 
f 16/16/16 15/15/15 14/14/14 
f 17/17/17 16/16/16 14/14/14 
f 18/18/18 13/13/13 12/12/12 
f 18/18/18 12/12/12 19/19/19 
f 12/12/12 20/20/20 19/19/19 
f 12/12/12 6/6/6 20/20/20 
f 19/19/19 20/20/20 21/21/21 
f 22/22/22 19/19/19 21/21/21 
f 22/22/22 21/21/21 16/23/23 
f 17/24/17 22/22/22 16/23/23 
f 16/16/16 23/25/24 15/15/15 
f 23/25/24 24/26/25 15/15/15 
f 16/23/23 21/21/21 23/27/26 
f 21/21/21 25/28/27 23/27/26 
f 21/21/21 20/20/20 25/28/27 
f 15/15/15 24/26/25 10/10/10 
f 20/20/20 26/29/28 25/28/27 
f 6/6/6 26/29/28 20/20/20 
f 26/29/28 6/6/6 8/8/8 
f 25/28/27 26/29/28 27/30/29 
f 26/29/28 8/8/8 27/30/29 
f 25/28/27 27/30/29 23/27/26 
f 24/26/25 23/25/24 28/31/30 
f 24/26/25 28/31/30 10/10/10 
f 23/25/24 29/32/31 28/31/30 
f 28/31/30 9/9/9 10/10/10 
f 29/33/31 27/30/29 30/34/32 
f 27/30/29 29/33/33 23/27/26 
f 28/31/30 29/32/31 5/5/5 
f 28/31/30 5/5/5 9/9/9 
f 29/32/31 30/35/32 5/5/5 
f 5/5/5 4/4/4 9/9/9 
f 9/9/9 4/4/4 31/36/34 
f 7/7/7 9/9/9 31/36/34 
f 32/37/35 33/38/36 34/39/37 
f 33/38/36 35/40/38 34/39/37 
f 32/37/35 34/39/37 36/41/39 
f 37/42/40 32/37/35 36/41/39 
f 38/43/41 35/40/38 33/38/36 
f 39/44/42 38/43/41 33/38/36 
f 40/45/43 38/43/41 39/44/42 
f 41/46/44 40/45/43 39/44/42 
f 41/46/44 42/47/45 40/45/43 
f 42/47/45 43/48/46 40/45/43 
f 36/49/39 43/48/46 42/47/45 
f 37/50/40 36/49/39 42/47/45 
f 33/38/36 32/37/35 44/51/47 
f 44/51/47 32/37/35 37/42/40 
f 45/52/48 33/38/36 44/51/47 
f 39/44/42 33/38/36 45/52/48 
f 46/53/49 44/51/47 37/42/40 
f 46/54/49 37/50/40 42/47/45 
f 47/55/50 46/54/49 42/47/45 
f 47/55/50 42/47/45 41/46/44 
f 48/56/51 47/55/50 41/46/44 
f 48/56/51 41/46/44 49/57/52 
f 41/46/44 39/44/42 49/57/52 
f 49/57/52 39/44/42 45/52/48 
f 45/52/48 50/58/53 49/57/52 
f 49/57/52 50/58/53 51/59/54 
f 51/59/54 50/58/53 52/60/55 
f 50/58/53 53/61/56 52/60/55 
f 54/62/57 53/61/56 50/58/53 
f 55/63/58 54/62/57 50/58/53 
f 45/52/48 55/63/58 50/58/53 
f 44/51/47 55/63/58 45/52/48 
f 56/64/59 54/62/57 55/63/58 
f 57/65/60 56/64/59 55/63/58 
f 44/51/47 57/65/60 55/63/58 
f 57/65/60 44/51/47 46/53/49 
f 47/55/50 48/56/51 58/66/61 
f 58/66/61 48/56/51 59/67/62 
f 60/68/63 47/55/50 58/66/61 
f 46/54/49 47/55/50 60/68/63 
f 60/68/63 58/66/61 61/69/64 
f 60/68/63 61/69/64 56/70/65 
f 57/71/66 60/68/63 56/70/65 
f 58/66/61 62/72/67 61/69/64 
f 59/67/62 63/73/68 58/66/61 
f 63/73/68 62/72/67 58/66/61 
f 46/54/49 60/68/63 57/71/66 
f 53/61/56 54/62/57 64/74/69 
f 65/75/70 53/61/56 64/74/69 
f 56/64/59 66/76/71 54/62/57 
f 66/76/71 64/74/69 54/62/57 
f 66/77/71 56/70/65 61/69/64 
f 67/78/72 66/77/71 61/69/64 
f 67/78/72 61/69/64 62/72/67 
f 68/79/73 67/78/72 62/72/67 
f 63/73/68 69/80/74 62/72/67 
f 69/80/74 68/79/73 62/72/67 
f 65/75/70 70/81/75 53/61/56 
f 70/81/75 52/60/55 53/61/56 
f 71/82/76 18/83/77 72/84/78 
f 18/83/77 19/85/79 72/84/78 
f 72/84/78 19/85/79 73/86/80 
f 19/85/79 22/87/22 73/86/80 
f 71/82/76 74/88/81 18/83/77 
f 74/88/81 13/89/13 18/83/77 
f 14/90/82 13/89/13 74/88/81 
f 75/91/83 14/90/82 74/88/81 
f 17/92/84 14/90/82 75/91/83 
f 76/93/85 17/92/84 75/91/83 
f 22/94/86 17/92/84 76/93/85 
f 73/95/80 22/94/86 76/93/85 
f 75/91/83 74/88/81 38/43/41 
f 40/45/43 75/91/83 38/43/41 
f 38/43/41 74/88/81 35/40/38 
f 74/88/81 71/82/76 35/40/38 
f 35/40/38 71/82/76 72/84/78 
f 34/39/37 35/40/38 72/84/78 
f 34/39/37 72/84/78 73/86/80 
f 36/41/39 34/39/37 73/86/80 
f 73/95/80 76/93/85 43/48/46 
f 40/45/43 43/48/46 75/91/83 
f 43/48/46 76/93/85 75/91/83 
f 36/49/39 73/95/80 43/48/46 
f 59/96/62 77/97/87 63/98/88 
f 69/99/74 63/98/88 77/97/87 
f 78/100/89 69/99/74 77/97/87 
f 79/101/90 78/100/89 77/97/87 
f 59/96/62 80/102/91 77/97/87 
f 77/97/87 80/102/91 81/103/92 
f 81/103/93 79/101/94 77/97/95 
f 82/104/96 81/103/97 80/102/91 
f 82/104/96 83/105/98 84/106/99 
f 83/105/100 85/107/101 84/106/102 
f 51/108/103 85/107/101 83/105/100 
f 51/108/103 52/109/55 85/107/101 
f 86/110/104 84/106/102 85/107/101 
f 87/111/105 86/110/104 85/107/101 
f 52/109/55 70/112/75 85/107/101 
f 70/112/75 87/111/105 85/107/101 
f 82/104/106 88/113/107 81/103/97 
f 79/101/94 81/103/97 88/113/107 
f 89/114/108 79/101/94 88/113/107 
f 48/56/51 82/115/96 80/116/91 
f 82/115/96 48/56/51 49/57/52 
f 49/57/52 83/117/109 82/115/96 
f 49/57/52 51/59/54 83/117/109 
f 48/56/51 80/116/91 59/67/62 
f 82/104/110 84/106/111 88/113/107 
f 84/106/111 86/110/104 88/113/107 
f 86/110/104 89/114/108 88/113/107 
f 89/118/108 70/119/75 65/120/112 
f 89/118/108 65/120/112 66/121/113 
f 66/121/113 65/120/112 64/122/114 
f 89/118/108 66/121/113 68/123/115 
f 68/123/115 69/124/116 89/118/108 
f 68/123/115 66/121/113 67/125/117 
f 87/126/118 70/127/75 89/128/108 
f 89/128/108 86/129/119 87/126/118 
f 69/130/120 78/131/121 89/128/108 
f 78/131/121 79/132/94 89/128/108 
f 90/133/122 91/134/123 92/135/124 
f 90/133/122 92/135/124 93/136/125 
f 90/133/122 93/136/125 94/137/126 
f 90/133/122 94/137/126 95/138/127 
f 90/133/122 95/138/127 96/139/128 
f 90/133/122 96/139/128 97/140/129 
f 90/133/122 97/140/129 98/141/130 
f 90/133/122 98/141/130 99/142/131 
f 90/133/122 99/142/131 100/143/132 
f 90/133/122 100/143/132 91/134/123 
f 101/133/122 102/134/133 103/135/134 
f 101/133/122 103/135/134 104/136/135 
f 101/133/122 104/136/135 105/137/136 
f 101/133/122 105/137/136 106/138/127 
f 101/133/122 106/138/127 107/139/128 
f 101/133/122 107/139/128 108/140/137 
f 101/133/122 108/140/137 109/141/138 
f 101/133/122 109/141/138 110/142/139 
f 101/133/122 110/142/139 111/143/132 
f 101/133/122 111/143/132 102/134/133 
# 0 polygons - 186 triangles

