# 3ds Max Wavefront OBJ Exporter v0.99 - (c)2007 guruware
# File Created: 21.10.2024 18:17:23

mtllib Laboon.mtl

#
# object model1239
#

v  2.2647 2.2406 8.2697
v  -0.0512 2.8230 9.3903
v  -0.0512 2.1659 9.1509
v  2.4489 2.8943 8.3947
v  3.0548 2.4729 6.3047
v  3.2604 3.1258 6.4033
v  3.7678 2.5064 2.9308
v  3.9896 2.8037 2.9720
v  3.1626 2.2699 5.2265
v  3.3668 1.6288 5.0660
v  3.7099 2.5025 3.0111
v  2.2764 0.9700 6.8263
v  2.0936 1.6218 6.9627
v  -0.0512 0.6943 7.9457
v  -0.0512 1.3929 7.9777
v  3.4888 2.7932 3.0876
v  1.7644 7.3900 -8.4230
v  -0.0511 6.5443 -8.2424
v  -0.0512 6.5456 -6.0976
v  2.5448 7.4359 -6.7194
v  4.0793 7.0881 -9.2061
v  2.7778 2.8226 8.5371
v  4.2812 2.7292 2.5985
v  4.5889 6.8884 6.0650
v  2.8976 6.8969 9.4893
v  -0.0512 6.9054 10.2696
v  -0.0512 2.6716 9.6868
v  4.3600 6.0848 1.7735
v  1.0271 3.4971 -5.1430
v  -0.0511 4.7629 -4.6917
v  -0.0511 9.5830 0.5682
v  3.1135 8.8092 0.9626
v  -0.0512 10.7491 4.9600
v  -0.0512 10.1041 7.9994
v  3.0055 9.2473 7.5606
v  3.6222 1.4960 2.6748
v  -0.0511 1.1019 -2.1222
v  -0.0511 2.4291 -5.4786
v  -0.0512 1.0992 2.6994
v  -0.0512 2.7403 2.6106
v  3.0004 1.2869 6.8008
v  -0.0512 0.7020 8.2481
v  -0.0512 -0.0296 7.4627
v  3.0004 0.5863 6.0645
v  -0.0512 6.5439 -6.8805
v  -0.0512 4.4417 -7.2019
v  5.5919 2.0431 1.3911
v  4.5705 2.4145 -0.3559
v  6.8672 1.9207 -0.5920
v  5.3006 2.8320 0.5176
v  3.7340 3.7433 1.6272
v  3.9035 2.3156 2.6678
v  2.6869 2.7580 0.5867
v  -2.3670 2.2406 8.2697
v  -2.5512 2.8943 8.3947
v  -3.1571 2.4729 6.3047
v  -3.3627 3.1258 6.4033
v  -3.8701 2.5064 2.9308
v  -4.0919 2.8037 2.9720
v  -3.4691 1.6288 5.0661
v  -3.2649 2.2699 5.2266
v  -3.8123 2.5025 3.0111
v  -2.3787 0.9700 6.8263
v  -2.1959 1.6218 6.9627
v  -3.5911 2.7932 3.0876
v  -1.8667 7.3900 -8.4230
v  -2.6471 7.4359 -6.7194
v  -4.1816 7.0881 -9.2061
v  -4.3835 2.7291 2.5985
v  -2.8801 2.8226 8.5371
v  -4.6912 6.8884 6.0650
v  -2.9999 6.8969 9.4893
v  -4.4623 6.0847 1.7735
v  -1.1294 3.4971 -5.1430
v  -3.2158 8.8092 0.9626
v  -3.1078 9.2473 7.5606
v  -3.7245 1.4960 2.6748
v  -3.1028 1.2869 6.8008
v  -3.1028 0.5863 6.0645
v  -4.6728 2.4145 -0.3559
v  -5.6942 2.0430 1.3912
v  -6.9695 1.9207 -0.5920
v  -4.0058 2.3156 2.6678
v  -3.8363 3.7433 1.6272
v  -5.4029 2.8320 0.5176
v  -2.7892 2.7580 0.5867
v  2.8976 6.8969 9.5312
v  -0.0511 6.9054 10.3115
v  -0.0511 2.6716 9.7287
v  2.7778 2.8226 8.5790
v  -0.0512 10.1041 8.0412
v  3.0055 9.2473 7.6025
v  -2.9999 6.8969 9.5312
v  -2.8801 2.8226 8.5790
v  -3.1078 9.2473 7.6025
# 95 vertices

vn 0.6584 -0.3206 0.6809
vn 0.0000 -0.3337 0.9427
vn 0.0000 -0.3424 0.9396
vn 0.7041 -0.3214 0.6332
vn 0.9099 -0.3241 0.2589
vn 0.9046 -0.3363 0.2619
vn 0.7910 -0.5718 0.2176
vn 0.7671 -0.6028 0.2196
vn 0.8874 0.1957 0.4173
vn 0.8921 0.1804 0.4143
vn 0.8339 0.4882 0.2573
vn 0.6728 0.0350 0.7390
vn 0.6424 0.0221 0.7661
vn 0.0000 -0.0505 0.9987
vn 0.0000 -0.0458 0.9989
vn 0.8008 0.5421 0.2548
vn -0.1554 0.9878 0.0045
vn -0.0000 1.0000 -0.0006
vn -0.0000 0.9984 0.0566
vn -0.1341 0.9904 0.0347
vn 0.1041 0.9918 -0.0744
vn 0.5563 -0.6769 0.4820
vn 0.9481 -0.3090 -0.0755
vn 0.9702 0.1700 0.1725
vn 0.5948 0.1762 0.7843
vn 0.0000 0.2257 0.9742
vn 0.0000 -0.7080 0.7062
vn 0.9548 0.1306 -0.2670
vn 0.8759 -0.1634 -0.4540
vn 0.0000 0.9462 -0.3235
vn -0.0000 0.8778 -0.4790
vn 0.6394 0.6686 -0.3797
vn -0.0000 0.9997 -0.0250
vn -0.0000 0.8466 0.5322
vn 0.6097 0.7018 0.3684
vn 0.6224 -0.7613 -0.1816
vn 0.0000 -0.9411 -0.3381
vn 0.0000 -0.8311 -0.5562
vn -0.0000 -0.9927 -0.1209
vn 0.0000 -0.1746 0.9846
vn 0.6187 0.2735 0.7365
vn 0.0000 0.0969 0.9953
vn 0.0000 -0.9383 0.3459
vn 0.6052 -0.7792 0.1629
vn -0.0000 0.9158 -0.4015
vn -0.0000 -0.1513 -0.9885
vn 0.6498 -0.4980 0.5743
vn -0.2438 -0.1730 -0.9543
vn 0.8133 -0.2453 -0.5276
vn 0.4584 0.8852 -0.0798
vn 0.3613 0.9323 -0.0130
vn 0.4106 -0.6140 0.6741
vn -0.4701 -0.2937 -0.8323
vn -0.6584 -0.3206 0.6809
vn -0.7041 -0.3214 0.6332
vn -0.9099 -0.3241 0.2589
vn -0.9046 -0.3363 0.2619
vn -0.7910 -0.5718 0.2176
vn -0.7671 -0.6028 0.2196
vn -0.8921 0.1804 0.4143
vn -0.8874 0.1957 0.4173
vn -0.8339 0.4882 0.2573
vn -0.6728 0.0350 0.7390
vn -0.6424 0.0221 0.7661
vn -0.8008 0.5421 0.2548
vn 0.1554 0.9878 0.0045
vn 0.1341 0.9904 0.0347
vn -0.1041 0.9918 -0.0744
vn -0.9481 -0.3090 -0.0755
vn -0.5563 -0.6769 0.4820
vn -0.9702 0.1700 0.1725
vn -0.5948 0.1762 0.7843
vn -0.9548 0.1306 -0.2670
vn -0.8759 -0.1634 -0.4540
vn -0.6394 0.6686 -0.3797
vn -0.6097 0.7018 0.3684
vn -0.6224 -0.7613 -0.1817
vn -0.6187 0.2735 0.7365
vn -0.6052 -0.7792 0.1629
vn 0.2438 -0.1730 -0.9543
vn -0.6498 -0.4980 0.5743
vn -0.8133 -0.2453 -0.5276
vn -0.4106 -0.6140 0.6741
vn -0.3613 0.9323 -0.0130
vn -0.4584 0.8852 -0.0798
vn 0.4701 -0.2937 -0.8323
vn 0.2927 0.2438 0.9246
vn 0.0000 -0.1970 0.9804
vn 0.3773 -0.2213 0.8993
vn -0.0000 0.6027 0.7979
vn 0.2763 0.6020 0.7491
vn -0.2927 0.2438 0.9246
vn -0.3773 -0.2213 0.8993
vn -0.2763 0.6021 0.7491
# 94 vertex normals

vt 0.9029 0.9447 0.0000
vt 0.9958 0.6991 0.0000
vt 0.9029 0.6991 0.0000
vt 0.9958 0.9447 0.0000
vt 0.9029 0.7345 0.0000
vt 0.9958 0.7345 0.0000
vt 0.9958 0.9790 0.0000
vt 0.9029 0.9790 0.0000
vt 0.7218 0.9949 0.0000
vt 0.8319 0.9949 0.0000
vt 0.8319 0.8715 0.0000
vt 0.6694 0.8715 0.0000
vt 0.5676 0.9949 0.0000
vt 0.2293 0.5750 0.0000
vt 0.4580 0.5791 0.0000
vt 0.3181 0.7618 0.0000
vt 0.1943 0.7780 0.0000
vt 0.0065 0.7880 0.0000
vt 0.0059 0.5711 0.0000
vt 0.4906 0.7251 0.0000
vt 0.8415 0.5830 0.0000
vt 0.8286 0.6393 0.0000
vt 0.6457 0.8631 0.0000
vt 0.6043 0.8192 0.0000
vt 0.5210 0.9933 0.0000
vt 0.0089 0.9960 0.0000
vt 0.2187 0.8836 0.0000
vt 0.6399 0.4336 0.0000
vt 0.7486 0.4528 0.0000
vt 0.8993 0.5098 0.0000
vt 0.6492 0.4077 0.0000
vt 0.6889 0.1138 0.0000
vt 0.7003 0.2226 0.0000
vt 0.4557 0.2218 0.0000
vt 0.4534 0.1178 0.0000
vt 0.9293 0.2216 0.0000
vt 0.7011 0.2230 0.0000
vt 0.6886 0.1142 0.0000
vt 0.9301 0.1104 0.0000
vt 0.5549 0.2502 0.0000
vt 0.5540 0.3108 0.0000
vt 0.4590 0.2991 0.0000
vt 0.4653 0.2357 0.0000
vt 0.8895 0.6533 0.0000
vt 0.9892 0.5621 0.0000
vt 0.8247 0.3248 0.0000
vt 0.8327 0.4337 0.0000
vt 0.7210 0.3778 0.0000
vt 0.8246 0.3246 0.0000
vt 0.8336 0.2437 0.0000
vt 0.9962 0.2411 0.0000
vt 0.9928 0.3305 0.0000
vt 0.8254 0.3256 0.0000
vt 0.9949 0.3288 0.0000
vt 0.9922 0.3300 0.0000
vt 0.9949 0.4430 0.0000
vt 0.7302 0.2482 0.0000
vt 0.4590 0.5809 0.0000
vt 0.2301 0.5759 0.0000
vt 0.3191 0.7636 0.0000
vt 0.1952 0.7788 0.0000
vt 0.0064 0.5705 0.0000
vt 0.0070 0.7872 0.0000
vt 0.4916 0.7268 0.0000
vt 0.8421 0.5833 0.0000
vt 0.6461 0.8625 0.0000
vt 0.8291 0.6390 0.0000
vt 0.6052 0.8203 0.0000
vt 0.5215 0.9926 0.0000
vt 0.0093 0.9953 0.0000
vt 0.2195 0.8844 0.0000
vt 0.7491 0.4526 0.0000
vt 0.6408 0.4351 0.0000
vt 0.8998 0.5096 0.0000
vt 0.6496 0.4073 0.0000
vt 0.4558 0.0103 0.0000
vt 0.7005 0.0079 0.0000
vt 0.9277 0.0099 0.0000
vt 0.6995 0.0081 0.0000
vt 0.4599 0.3002 0.0000
vt 0.5548 0.3119 0.0000
vt 0.5554 0.2497 0.0000
vt 0.4658 0.2351 0.0000
vt 0.8899 0.6529 0.0000
vt 0.9896 0.5619 0.0000
vt 0.8341 0.4336 0.0000
vt 0.8249 0.3247 0.0000
vt 0.7224 0.3776 0.0000
vt 0.8245 0.3245 0.0000
vt 0.9926 0.3304 0.0000
vt 0.9960 0.2412 0.0000
vt 0.8327 0.2442 0.0000
vt 0.8249 0.3258 0.0000
vt 0.9947 0.3289 0.0000
vt 0.9963 0.4428 0.0000
vt 0.9935 0.3298 0.0000
vt 0.7301 0.2477 0.0000
vt 0.2045 0.4656 0.0000
vt 0.2136 0.2940 0.0000
vt 0.4310 0.2944 0.0000
vt 0.4225 0.4594 0.0000
vt 0.0089 0.2957 0.0000
vt 0.0466 0.4733 0.0000
vt 0.2035 0.1235 0.0000
vt 0.4216 0.1312 0.0000
vt 0.0456 0.1187 0.0000
# 106 texture coords

o model1239
g model1239
usemtl material1
s 1
f 1/1/1 2/2/2 3/3/3 
f 4/4/4 2/2/2 1/1/1 
f 5/3/5 4/4/4 1/1/1 
f 6/2/6 4/4/4 5/3/5 
f 7/1/7 6/2/6 5/3/5 
f 8/4/8 6/2/6 7/1/7 
f 9/5/9 10/6/10 11/7/11 
f 12/7/12 10/6/10 9/5/9 
f 13/8/13 12/7/12 9/5/9 
f 14/6/14 12/7/12 13/8/13 
f 15/5/15 14/6/14 13/8/13 
f 16/8/16 9/5/9 11/7/11 
f 17/9/17 18/10/18 19/11/19 
f 20/12/20 17/9/17 19/11/19 
f 21/13/21 17/9/17 20/12/20 
f 22/14/22 23/15/23 24/16/24 
f 25/17/25 26/18/26 27/19/27 22/14/22 
f 23/15/23 28/20/28 24/16/24 
f 28/20/28 23/15/23 29/21/29 
f 30/22/30 31/23/31 32/24/32 
f 32/24/32 28/20/28 29/21/29 
f 29/21/29 30/22/30 32/24/32 
f 33/25/33 32/24/32 31/23/31 
f 34/26/34 26/18/26 25/17/25 35/27/35 
f 24/16/24 28/20/28 32/24/32 
f 24/16/24 35/27/35 25/17/25 
f 32/24/32 35/27/35 24/16/24 
f 33/25/33 34/26/34 35/27/35 
f 35/27/35 32/24/32 33/25/33 
f 24/16/24 25/17/25 22/14/22 
f 36/28/36 37/29/37 29/21/29 
f 37/29/37 38/30/38 29/21/29 
f 36/28/36 39/31/39 37/29/37 
f 40/32/40 23/33/23 22/34/22 27/35/27 
f 41/36/41 23/37/23 40/38/40 42/39/42 
f 43/40/43 44/41/44 41/42/41 42/43/42 
f 39/31/39 44/41/44 43/40/43 
f 41/42/41 44/41/44 23/15/23 
f 39/31/39 36/28/36 44/41/44 
f 36/28/36 23/15/23 44/41/44 
f 29/21/29 23/15/23 36/28/36 
f 45/44/45 30/22/30 29/21/29 
f 46/45/46 45/44/45 29/21/29 
f 29/21/29 38/30/38 46/45/46 
f 47/46/47 48/47/48 49/48/49 
f 47/49/47 50/50/50 51/51/51 52/52/52 
f 48/53/48 53/54/53 51/51/51 50/50/50 
f 48/47/48 47/46/47 52/55/52 53/56/53 
f 47/49/47 49/57/49 50/50/50 
f 50/50/50 49/57/49 48/53/48 
f 2/2/2 54/1/54 3/3/3 
f 2/2/2 55/4/55 54/1/54 
f 55/4/55 56/3/56 54/1/54 
f 55/4/55 57/2/57 56/3/56 
f 57/2/57 58/1/58 56/3/56 
f 57/2/57 59/4/59 58/1/58 
f 60/6/60 61/5/61 62/7/62 
f 60/6/60 63/7/63 61/5/61 
f 63/7/63 64/8/64 61/5/61 
f 63/7/63 14/6/14 64/8/64 
f 14/6/14 15/5/15 64/8/64 
f 61/5/61 65/8/65 62/7/62 
f 18/10/18 66/9/66 19/11/19 
f 66/9/66 67/12/67 19/11/19 
f 66/9/66 68/13/68 67/12/67 
f 69/58/69 70/59/70 71/60/71 
f 72/61/72 70/59/70 27/62/27 26/63/26 
f 73/64/73 69/58/69 71/60/71 
f 69/58/69 73/64/73 74/65/74 
f 31/66/31 30/67/30 75/68/75 
f 73/64/73 75/68/75 74/65/74 
f 30/67/30 74/65/74 75/68/75 
f 75/68/75 33/69/33 31/66/31 
f 34/70/34 76/71/76 72/61/72 26/63/26 
f 73/64/73 71/60/71 75/68/75 
f 76/71/76 71/60/71 72/61/72 
f 76/71/76 75/68/75 71/60/71 
f 34/70/34 33/69/33 76/71/76 
f 75/68/75 76/71/76 33/69/33 
f 72/61/72 71/60/71 70/59/70 
f 37/72/37 77/73/77 74/65/74 
f 38/74/38 37/72/37 74/65/74 
f 39/75/39 77/73/77 37/72/37 
f 70/76/70 69/77/69 40/32/40 27/35/27 
f 78/78/78 42/39/42 40/38/40 69/79/69 
f 78/80/78 79/81/79 43/82/43 42/83/42 
f 79/81/79 39/75/39 43/82/43 
f 79/81/79 78/80/78 69/58/69 
f 77/73/77 39/75/39 79/81/79 
f 69/58/69 77/73/77 79/81/79 
f 69/58/69 74/65/74 77/73/77 
f 30/67/30 45/84/45 74/65/74 
f 45/84/45 46/85/46 74/65/74 
f 38/74/38 74/65/74 46/85/46 
f 80/86/80 81/87/81 82/88/82 
f 81/89/81 83/90/83 84/91/84 85/92/85 
f 80/93/80 85/92/85 84/91/84 86/94/86 
f 80/86/80 86/95/86 83/96/83 81/87/81 
f 82/97/82 81/89/81 85/92/85 
f 82/97/82 85/92/85 80/93/80 
f 87/98/87 88/99/26 89/100/88 90/101/89 
f 91/102/90 88/99/26 87/98/87 92/103/91 
f 93/104/92 94/105/93 89/100/88 88/99/26 
f 91/102/90 95/106/94 93/104/92 88/99/26 
# 20 polygons - 84 triangles

