# Blender 4.2.1 LTS
# www.blender.org
mtllib Laboon.mtl
o model1239
v 0.490543 0.485324 1.791252
v -0.011090 0.611474 2.033978
v -0.011090 0.469143 1.982123
v 0.530442 0.626918 1.818327
v 0.661682 0.535641 1.365624
v 0.706216 0.677061 1.386982
v 0.816121 0.542897 0.634824
v 0.864164 0.607293 0.643748
v 0.685032 0.491670 1.132082
v 0.729263 0.352805 1.097317
v 0.803580 0.542052 0.652217
v 0.493078 0.210106 1.478605
v 0.453483 0.351289 1.508150
v -0.011090 0.150388 1.721072
v -0.011090 0.301708 1.728003
v 0.755689 0.605019 0.668787
v 0.382176 1.600705 -1.824457
v -0.011068 1.417523 -1.785339
v -0.011090 1.417804 -1.320766
v 0.551214 1.610647 -1.455450
v 0.883593 1.535312 -1.994080
v 0.601683 0.611387 1.849172
v 0.927326 0.591156 0.562846
v 0.993975 1.492056 1.313704
v 0.627632 1.493898 2.055422
v -0.011090 1.495739 2.224438
v -0.011090 0.578680 2.098202
v 0.944394 1.317993 0.384147
v 0.222474 0.757486 -1.113995
v -0.011068 1.031664 -1.016242
v -0.011068 2.075718 0.123074
v 0.674397 1.908110 0.208503
v -0.011090 2.328300 1.074357
v -0.011090 2.188591 1.732703
v 0.651004 2.003004 1.637657
v 0.784584 0.324040 0.579373
v -0.011068 0.238676 -0.459677
v -0.011068 0.526153 -1.186688
v -0.011090 0.238091 0.584701
v -0.011090 0.593561 0.565467
v 0.649899 0.278748 1.473082
v -0.011090 0.152056 1.786573
v -0.011090 -0.006411 1.616452
v 0.649899 0.126995 1.313596
v -0.011090 1.417436 -1.490345
v -0.011090 0.962091 -1.559962
v 1.211229 0.442544 0.301318
v 0.989989 0.522991 -0.077089
v 1.487464 0.416032 -0.128230
v 1.148132 0.613423 0.112114
v 0.808800 0.810814 0.352458
v 0.845514 0.501569 0.577857
v 0.581994 0.597394 0.127082
v -0.512702 0.485324 1.791252
v -0.552601 0.626918 1.818327
v -0.683841 0.535641 1.365624
v -0.728375 0.677061 1.386982
v -0.838280 0.542897 0.634824
v -0.886323 0.607293 0.643748
v -0.751422 0.352805 1.097339
v -0.707191 0.491670 1.132103
v -0.825760 0.542052 0.652217
v -0.515236 0.210106 1.478605
v -0.475641 0.351289 1.508150
v -0.777847 0.605019 0.668787
v -0.404335 1.600705 -1.824457
v -0.573373 1.610647 -1.455450
v -0.905752 1.535312 -1.994080
v -0.949484 0.591135 0.562846
v -0.623842 0.611387 1.849172
v -1.016134 1.492056 1.313704
v -0.649791 1.493898 2.055422
v -0.966553 1.317971 0.384147
v -0.244633 0.757486 -1.113995
v -0.696556 1.908110 0.208503
v -0.673163 2.003004 1.637657
v -0.806742 0.324040 0.579373
v -0.672079 0.278748 1.473082
v -0.672079 0.126995 1.313596
v -1.012148 0.522991 -0.077089
v -1.233388 0.442522 0.301340
v -1.509623 0.416032 -0.128230
v -0.867673 0.501569 0.577857
v -0.830959 0.810814 0.352458
v -1.170291 0.613423 0.112114
v -0.604152 0.597394 0.127082
v 0.627632 1.493898 2.064498
v -0.011068 1.495739 2.233514
v -0.011068 0.578680 2.107277
v 0.601683 0.611387 1.858247
v -0.011090 2.188591 1.741757
v 0.651004 2.003004 1.646733
v -0.649791 1.493898 2.064498
v -0.623842 0.611387 1.858247
v -0.673163 2.003004 1.646733
vn 0.6584 -0.3206 0.6809
vn -0.0000 -0.3337 0.9427
vn -0.0000 -0.3423 0.9396
vn 0.7041 -0.3214 0.6332
vn 0.9099 -0.3240 0.2588
vn 0.9046 -0.3363 0.2619
vn 0.7910 -0.5718 0.2176
vn 0.7671 -0.6027 0.2196
vn 0.8874 0.1957 0.4173
vn 0.8921 0.1804 0.4143
vn 0.8340 0.4882 0.2573
vn 0.6728 0.0350 0.7390
vn 0.6424 0.0221 0.7661
vn -0.0000 -0.0505 0.9987
vn -0.0000 -0.0458 0.9990
vn 0.8008 0.5420 0.2547
vn -0.1554 0.9878 0.0045
vn -0.0000 1.0000 -0.0006
vn -0.0000 0.9984 0.0566
vn -0.1341 0.9904 0.0347
vn 0.1042 0.9918 -0.0744
vn 0.5563 -0.6769 0.4820
vn 0.9481 -0.3090 -0.0755
vn 0.9702 0.1700 0.1725
vn 0.5948 0.1762 0.7843
vn -0.0000 0.2257 0.9742
vn -0.0000 -0.7080 0.7062
vn 0.9548 0.1306 -0.2670
vn 0.8759 -0.1634 -0.4540
vn -0.0000 0.9462 -0.3235
vn -0.0000 0.8778 -0.4790
vn 0.6394 0.6686 -0.3797
vn -0.0000 0.9997 -0.0250
vn -0.0000 0.8466 0.5322
vn 0.6097 0.7018 0.3684
vn 0.6225 -0.7613 -0.1816
vn -0.0000 -0.9411 -0.3380
vn -0.0000 -0.8311 -0.5562
vn -0.0000 -0.9927 -0.1209
vn -0.0000 -0.1746 0.9846
vn 0.6187 0.2735 0.7365
vn -0.0000 0.0969 0.9953
vn -0.0000 -0.9383 0.3459
vn 0.6052 -0.7793 0.1628
vn -0.0000 0.9158 -0.4016
vn -0.0000 -0.1513 -0.9885
vn 0.6498 -0.4980 0.5743
vn -0.2438 -0.1730 -0.9543
vn 0.8133 -0.2454 -0.5276
vn 0.4584 0.8852 -0.0798
vn 0.3613 0.9324 -0.0130
vn 0.4106 -0.6140 0.6741
vn -0.4701 -0.2937 -0.8323
vn -0.6585 -0.3206 0.6809
vn -0.7041 -0.3214 0.6332
vn -0.9099 -0.3240 0.2588
vn -0.9046 -0.3363 0.2619
vn -0.7910 -0.5718 0.2176
vn -0.7671 -0.6027 0.2196
vn -0.8921 0.1804 0.4143
vn -0.8874 0.1957 0.4173
vn -0.8339 0.4883 0.2573
vn -0.6728 0.0350 0.7390
vn -0.6424 0.0221 0.7661
vn -0.8007 0.5422 0.2548
vn 0.1553 0.9878 0.0045
vn 0.1341 0.9904 0.0347
vn -0.1042 0.9918 -0.0744
vn -0.9481 -0.3090 -0.0755
vn -0.5563 -0.6769 0.4820
vn -0.9702 0.1700 0.1725
vn -0.5948 0.1762 0.7843
vn -0.9548 0.1306 -0.2670
vn -0.8759 -0.1634 -0.4540
vn -0.6394 0.6686 -0.3797
vn -0.6097 0.7018 0.3684
vn -0.6225 -0.7613 -0.1816
vn -0.6187 0.2735 0.7365
vn -0.6051 -0.7793 0.1628
vn 0.2438 -0.1730 -0.9543
vn -0.6498 -0.4980 0.5743
vn -0.8133 -0.2454 -0.5276
vn -0.4107 -0.6140 0.6741
vn -0.3613 0.9323 -0.0130
vn -0.4584 0.8852 -0.0798
vn 0.4701 -0.2937 -0.8323
vn 0.2927 0.2438 0.9246
vn -0.0000 -0.1970 0.9804
vn 0.3773 -0.2213 0.8993
vn -0.0000 0.6027 0.7979
vn 0.2763 0.6020 0.7491
vn -0.2927 0.2438 0.9246
vn -0.3773 -0.2213 0.8993
vn -0.2763 0.6021 0.7491
vt 0.902900 0.944700
vt 0.995800 0.699100
vt 0.902900 0.699100
vt 0.995800 0.944700
vt 0.902900 0.734500
vt 0.995800 0.734500
vt 0.995800 0.979000
vt 0.902900 0.979000
vt 0.721800 0.994900
vt 0.831900 0.994900
vt 0.831900 0.871500
vt 0.669400 0.871500
vt 0.567600 0.994900
vt 0.229300 0.575000
vt 0.458000 0.579100
vt 0.318100 0.761800
vt 0.194300 0.778000
vt 0.006500 0.788000
vt 0.005900 0.571100
vt 0.490600 0.725100
vt 0.841500 0.583000
vt 0.828600 0.639300
vt 0.645700 0.863100
vt 0.604300 0.819200
vt 0.521000 0.993300
vt 0.008900 0.996000
vt 0.218700 0.883600
vt 0.639900 0.433600
vt 0.748600 0.452800
vt 0.899300 0.509800
vt 0.649200 0.407700
vt 0.688900 0.113800
vt 0.700300 0.222600
vt 0.455700 0.221800
vt 0.453400 0.117800
vt 0.929300 0.221600
vt 0.701100 0.223000
vt 0.688600 0.114200
vt 0.930100 0.110400
vt 0.554900 0.250200
vt 0.554000 0.310800
vt 0.459000 0.299100
vt 0.465300 0.235700
vt 0.889500 0.653300
vt 0.989200 0.562100
vt 0.824700 0.324800
vt 0.832700 0.433700
vt 0.721000 0.377800
vt 0.824600 0.324600
vt 0.833600 0.243700
vt 0.996200 0.241100
vt 0.992800 0.330500
vt 0.825400 0.325600
vt 0.994900 0.328800
vt 0.992200 0.330000
vt 0.994900 0.443000
vt 0.730200 0.248200
vt 0.459000 0.580900
vt 0.230100 0.575900
vt 0.319100 0.763600
vt 0.195200 0.778800
vt 0.006400 0.570500
vt 0.007000 0.787200
vt 0.491600 0.726800
vt 0.842100 0.583300
vt 0.646100 0.862500
vt 0.829100 0.639000
vt 0.605200 0.820300
vt 0.521500 0.992600
vt 0.009300 0.995300
vt 0.219500 0.884400
vt 0.749100 0.452600
vt 0.640800 0.435100
vt 0.899800 0.509600
vt 0.649600 0.407300
vt 0.455800 0.010300
vt 0.700500 0.007900
vt 0.927700 0.009900
vt 0.699500 0.008100
vt 0.459900 0.300200
vt 0.554800 0.311900
vt 0.555400 0.249700
vt 0.465800 0.235100
vt 0.889900 0.652900
vt 0.989600 0.561900
vt 0.834100 0.433600
vt 0.824900 0.324700
vt 0.722400 0.377600
vt 0.824500 0.324500
vt 0.992600 0.330400
vt 0.996000 0.241200
vt 0.832700 0.244200
vt 0.824900 0.325800
vt 0.994700 0.328900
vt 0.996300 0.442800
vt 0.993500 0.329800
vt 0.730100 0.247700
vt 0.204500 0.465600
vt 0.213600 0.294000
vt 0.431000 0.294400
vt 0.422500 0.459400
vt 0.008900 0.295700
vt 0.046600 0.473300
vt 0.203500 0.123500
vt 0.421600 0.131200
vt 0.045600 0.118700
s 1
usemtl material1
f 1/1/1 2/2/2 3/3/3
f 4/4/4 2/2/2 1/1/1
f 5/3/5 4/4/4 1/1/1
f 6/2/6 4/4/4 5/3/5
f 7/1/7 6/2/6 5/3/5
f 8/4/8 6/2/6 7/1/7
f 9/5/9 10/6/10 11/7/11
f 12/7/12 10/6/10 9/5/9
f 13/8/13 12/7/12 9/5/9
f 14/6/14 12/7/12 13/8/13
f 15/5/15 14/6/14 13/8/13
f 16/8/16 9/5/9 11/7/11
f 17/9/17 18/10/18 19/11/19
f 20/12/20 17/9/17 19/11/19
f 21/13/21 17/9/17 20/12/20
f 22/14/22 23/15/23 24/16/24
f 25/17/25 26/18/26 27/19/27 22/14/22
f 23/15/23 28/20/28 24/16/24
f 28/20/28 23/15/23 29/21/29
f 30/22/30 31/23/31 32/24/32
f 32/24/32 28/20/28 29/21/29
f 29/21/29 30/22/30 32/24/32
f 33/25/33 32/24/32 31/23/31
f 34/26/34 26/18/26 25/17/25 35/27/35
f 24/16/24 28/20/28 32/24/32
f 24/16/24 35/27/35 25/17/25
f 32/24/32 35/27/35 24/16/24
f 33/25/33 34/26/34 35/27/35
f 35/27/35 32/24/32 33/25/33
f 24/16/24 25/17/25 22/14/22
f 36/28/36 37/29/37 29/21/29
f 37/29/37 38/30/38 29/21/29
f 36/28/36 39/31/39 37/29/37
f 40/32/40 23/33/23 22/34/22 27/35/27
f 41/36/41 23/37/23 40/38/40 42/39/42
f 43/40/43 44/41/44 41/42/41 42/43/42
f 39/31/39 44/41/44 43/40/43
f 41/42/41 44/41/44 23/15/23
f 39/31/39 36/28/36 44/41/44
f 36/28/36 23/15/23 44/41/44
f 29/21/29 23/15/23 36/28/36
f 45/44/45 30/22/30 29/21/29
f 46/45/46 45/44/45 29/21/29
f 29/21/29 38/30/38 46/45/46
f 47/46/47 48/47/48 49/48/49
f 47/49/47 50/50/50 51/51/51 52/52/52
f 48/53/48 53/54/53 51/51/51 50/50/50
f 48/47/48 47/46/47 52/55/52 53/56/53
f 47/49/47 49/57/49 50/50/50
f 50/50/50 49/57/49 48/53/48
f 2/2/2 54/1/54 3/3/3
f 2/2/2 55/4/55 54/1/54
f 55/4/55 56/3/56 54/1/54
f 55/4/55 57/2/57 56/3/56
f 57/2/57 58/1/58 56/3/56
f 57/2/57 59/4/59 58/1/58
f 60/6/60 61/5/61 62/7/62
f 60/6/60 63/7/63 61/5/61
f 63/7/63 64/8/64 61/5/61
f 63/7/63 14/6/14 64/8/64
f 14/6/14 15/5/15 64/8/64
f 61/5/61 65/8/65 62/7/62
f 18/10/18 66/9/66 19/11/19
f 66/9/66 67/12/67 19/11/19
f 66/9/66 68/13/68 67/12/67
f 69/58/69 70/59/70 71/60/71
f 72/61/72 70/59/70 27/62/27 26/63/26
f 73/64/73 69/58/69 71/60/71
f 69/58/69 73/64/73 74/65/74
f 31/66/31 30/67/30 75/68/75
f 73/64/73 75/68/75 74/65/74
f 30/67/30 74/65/74 75/68/75
f 75/68/75 33/69/33 31/66/31
f 34/70/34 76/71/76 72/61/72 26/63/26
f 73/64/73 71/60/71 75/68/75
f 76/71/76 71/60/71 72/61/72
f 76/71/76 75/68/75 71/60/71
f 34/70/34 33/69/33 76/71/76
f 75/68/75 76/71/76 33/69/33
f 72/61/72 71/60/71 70/59/70
f 37/72/37 77/73/77 74/65/74
f 38/74/38 37/72/37 74/65/74
f 39/75/39 77/73/77 37/72/37
f 70/76/70 69/77/69 40/32/40 27/35/27
f 78/78/78 42/39/42 40/38/40 69/79/69
f 78/80/78 79/81/79 43/82/43 42/83/42
f 79/81/79 39/75/39 43/82/43
f 79/81/79 78/80/78 69/58/69
f 77/73/77 39/75/39 79/81/79
f 69/58/69 77/73/77 79/81/79
f 69/58/69 74/65/74 77/73/77
f 30/67/30 45/84/45 74/65/74
f 45/84/45 46/85/46 74/65/74
f 38/74/38 74/65/74 46/85/46
f 80/86/80 81/87/81 82/88/82
f 81/89/81 83/90/83 84/91/84 85/92/85
f 80/93/80 85/92/85 84/91/84 86/94/86
f 80/86/80 86/95/86 83/96/83 81/87/81
f 82/97/82 81/89/81 85/92/85
f 82/97/82 85/92/85 80/93/80
f 87/98/87 88/99/26 89/100/88 90/101/89
f 91/102/90 88/99/26 87/98/87 92/103/91
f 93/104/92 94/105/93 89/100/88 88/99/26
f 91/102/90 95/106/94 93/104/92 88/99/26
