# Blender 4.2.1 LTS
# www.blender.org
mtllib isla4.mtl
g Plane_Plane
v 23.040726 -0.252023 8.762250
v 13.436589 0.001511 17.842323
v 20.474586 0.046695 13.102767
v 16.893291 0.000109 15.720899
v 24.407063 0.034710 3.983703
v 23.941204 0.000868 -0.807896
v 24.166595 -0.111604 -6.107244
v 25.347660 0.464486 -9.581892
v 28.161243 0.404959 -13.916301
v 28.566719 0.139534 -16.111359
v 28.798729 0.081723 -17.427555
v 29.134914 0.053873 -17.905031
v 30.382275 0.008440 -18.946651
v 31.966557 0.076733 -20.652966
v 32.378769 -0.001917 -22.620098
v 32.422535 -0.033709 -23.219776
v 31.917946 -0.000435 -26.561131
v 30.992924 0.004387 -28.995848
v 30.995617 0.003183 -31.282452
v 32.648926 -0.083978 -35.536598
v 34.013157 0.045200 -42.033165
v 30.598248 -0.665586 -45.939770
v 26.281136 0.002635 -45.921078
v 24.139065 0.003736 -45.151649
v 21.698936 0.003903 -46.673759
v 18.803112 0.003826 -48.349480
v 12.428752 -0.204436 -52.751564
v 8.601993 0.002064 -52.775761
v 5.868399 0.001025 -55.831676
v -3.144537 -0.733524 -58.643173
v -3.143025 -0.737924 -58.492851
v -8.597283 -0.005415 -58.585079
v -11.951298 -0.000232 -57.363682
v -16.369001 -0.000249 -57.669872
v -19.873337 -0.000291 -56.451275
v -22.698013 -0.432478 -52.056797
v -25.677784 -0.697912 -50.396492
v -27.068382 -0.044117 -45.695576
v -26.274658 -0.001317 -42.277550
v -25.666008 -0.001982 -39.380867
v -28.049408 -0.407588 -34.669903
v -35.110889 -0.000600 -35.575161
v -35.415619 -0.000586 -35.118053
v -37.396332 -0.000470 -33.289803
v -39.072346 -0.000375 -32.680550
v -40.596035 -0.000314 -31.156898
v -40.748413 -0.000316 -29.480656
v -40.900780 -0.000316 -25.061485
v -39.224693 -0.000386 -21.708792
v -37.853371 -0.000455 -20.184734
v -34.958450 -0.000650 -18.050795
v -33.282230 -0.000621 -12.869669
v -35.253204 -0.253634 -8.233372
v -37.395775 -0.000265 -6.318217
v -39.681335 -0.000156 -4.642227
v -42.881218 -0.000094 -2.204312
v -43.338322 -0.000079 -0.375743
v -44.063110 0.065095 3.276549
v -43.185818 -0.000047 6.633874
v -41.196407 -0.005818 10.099595
v -39.629860 -0.035230 11.576566
v -35.453358 0.012867 13.466832
v -34.042664 -0.000031 17.300880
v -32.437912 0.561385 19.812458
v -29.928211 -0.000021 22.329578
v -28.251976 -0.000020 23.091515
v -24.290001 -0.000021 23.396343
v -22.918526 -0.000019 24.310654
v -20.663208 -0.203187 26.065063
v -17.998413 -0.120693 26.795269
v -13.584618 -0.401144 28.546146
v -11.025343 -0.022941 28.427486
v -8.419215 0.262595 28.092552
v -8.247914 0.258052 28.085957
v -2.762008 -0.260710 29.851814
v -0.684986 -0.034629 29.499187
v 1.920239 0.000012 28.729969
v 2.834490 0.000014 27.510941
v 6.776301 0.012310 24.585171
v 7.694143 0.009059 21.227810
v 9.967071 0.015513 20.277412
v 22.246902 1.540519 8.019612
v 24.816254 1.009944 4.120784
v 20.257614 1.436902 12.656379
v 13.241599 1.361643 17.229664
v 16.893288 1.266821 15.720904
v 24.145515 1.123568 -0.721897
v 24.646114 0.815212 -5.932805
v 26.129604 1.220887 -8.785841
v 28.601963 1.386157 -13.445401
v 28.522366 1.435551 -16.150286
v 28.766926 1.369394 -17.455288
v 29.109905 1.337041 -17.926754
v 30.340084 1.304911 -18.961248
v 32.064594 1.270837 -20.655046
v 32.770809 0.978709 -22.580666
v 32.880035 0.899576 -23.168905
v 32.190132 1.068802 -26.521198
v 30.992664 1.271140 -28.995628
v 31.140125 1.165481 -31.255665
v 33.064728 0.882035 -35.459064
v 33.552509 1.676748 -41.738766
v 30.073029 0.733064 -45.798962
v 26.280998 1.269369 -45.920967
v 24.138847 1.270483 -45.151463
v 21.698696 1.270654 -46.673557
v 18.802864 1.270580 -48.349274
v 12.562755 0.897437 -52.731041
v 8.601834 1.268808 -52.775627
v 5.868320 1.267754 -55.831615
v -3.094838 0.400759 -58.709427
v -3.092915 0.395264 -58.559658
v -8.593520 1.251232 -58.590111
v -11.951315 1.266486 -57.363670
v -16.369011 1.266467 -57.669865
v -19.873344 1.266425 -56.451263
v -22.782692 0.739513 -52.062336
v -25.802330 0.429482 -50.404636
v -26.935810 1.170995 -45.768215
v -26.274670 1.265408 -42.277550
v -25.666023 1.264752 -39.380871
v -28.142506 0.474757 -34.681679
v -35.110893 1.266115 -35.575161
v -35.415623 1.266129 -35.118053
v -37.396336 1.266245 -33.289799
v -39.072350 1.266338 -32.680550
v -40.596039 1.266399 -31.156895
v -40.748417 1.266397 -29.480656
v -40.900780 1.266397 -25.061485
v -39.224697 1.266327 -21.708792
v -37.853374 1.266259 -20.184734
v -34.958454 1.266066 -18.050795
v -33.282234 1.266095 -12.869669
v -35.248543 0.888220 -8.276205
v -37.395447 1.257799 -6.321184
v -39.681335 1.266556 -4.642227
v -42.881218 1.266618 -2.204310
v -43.338322 1.266632 -0.375743
v -44.018318 1.410575 3.086425
v -43.185825 1.266664 6.633874
v -41.145664 1.225931 9.862727
v -39.523472 1.158179 11.079953
v -35.469425 1.732528 12.708238
v -34.042583 1.267246 17.300343
v -32.424236 1.923008 19.721825
v -29.928207 1.266718 22.329548
v -28.251976 1.266691 23.091515
v -24.290001 1.266690 23.396343
v -22.918526 1.266693 24.310654
v -20.736811 0.981745 26.096527
v -18.051340 1.087216 26.817894
v -13.576363 0.779279 28.572182
v -11.022547 1.193757 28.444416
v -8.383848 1.442072 28.110989
v -8.209921 1.437138 28.103378
v -2.808084 0.897528 29.874786
v -0.699389 1.198178 29.506371
v 1.920238 1.266723 28.729969
v 2.827467 1.271032 27.500202
v 6.608367 1.380813 24.313835
v 7.294639 1.496177 20.320877
v 9.393035 1.583385 18.787613
vn -0.0008 1.0000 -0.0029
vn 0.0002 -1.0000 0.0036
vn 0.6254 0.0288 -0.7798
vn 0.8321 -0.0000 0.5547
vn -0.9275 0.3300 0.1755
vn 0.2605 0.0356 -0.9648
vn 0.6783 -0.0000 0.7348
vn -0.9118 0.0993 0.3984
vn 0.3682 0.0258 -0.9294
vn 0.3416 -0.0000 0.9398
vn -0.9976 0.0596 -0.0343
vn -0.0509 0.0181 -0.9985
vn 0.7071 -0.0000 0.7071
vn -0.8871 0.2525 -0.3864
vn -0.1281 0.0167 -0.9916
vn 0.9959 -0.0000 0.0905
vn -0.9897 0.0034 -0.1432
vn -0.0407 0.0165 -0.9990
vn 0.9994 -0.0000 0.0345
vn -0.6837 -0.3168 0.6574
vn 0.3105 0.0175 -0.9504
vn 0.8945 -0.0000 -0.4472
vn -0.0212 -0.0569 0.9982
vn -0.1707 0.0081 -0.9853
vn 0.7434 -0.0000 -0.6689
vn 0.3381 -0.0001 0.9411
vn -0.2837 0.0011 -0.9589
vn 0.5934 -0.0000 -0.8049
vn -0.5293 -0.0002 0.8485
vn -0.8024 -0.0047 -0.5968
vn 0.9514 -0.0000 -0.3078
vn -0.5009 -0.0002 0.8655
vn -0.6146 -0.1240 -0.7790
vn 0.9197 0.0052 0.3927
vn -0.5720 0.0251 0.8198
vn -0.9391 -0.2729 -0.2091
vn 0.6709 0.0128 0.7415
vn -0.0094 -0.0082 0.9999
vn -0.8924 -0.2113 -0.3988
vn -0.3676 -0.6437 -0.6712
vn 0.5917 0.0009 0.8062
vn -0.7453 -0.0001 0.6667
vn -0.8166 -0.4108 -0.4054
vn -0.3974 -0.6018 -0.6928
vn 0.6060 -0.0000 0.7954
vn -0.3042 0.0325 0.9520
vn -0.4446 -0.2346 -0.8644
vn 0.9701 -0.0000 0.2425
vn 0.9989 -0.0447 -0.0129
vn -0.6197 -0.1790 -0.7642
vn 0.9810 -0.0027 0.1938
vn -0.0068 0.0302 0.9995
vn -0.9567 0.2675 0.1151
vn 0.9699 -0.0342 -0.2412
vn 0.3426 0.0014 0.9395
vn -0.9427 0.3245 -0.0781
vn 0.8547 -0.0662 -0.5149
vn -0.0691 -0.0000 0.9976
vn -0.7240 0.6594 -0.2026
vn 0.6178 -0.2640 -0.7407
vn 0.3284 -0.0000 0.9445
vn -0.6213 0.6975 -0.3570
vn 0.3883 -0.3748 -0.8419
vn 0.8355 0.0303 0.5487
vn -0.9801 0.1845 -0.0733
vn 0.9436 -0.0768 -0.3221
vn 0.4798 0.0489 0.8760
vn -0.9836 -0.0336 -0.1772
vn 0.8395 -0.0232 -0.5428
vn 0.9655 0.0057 0.2602
vn -0.8137 -0.0291 -0.5805
vn 0.7118 -0.0279 -0.7019
vn 0.9771 -0.0582 -0.2046
vn -0.6425 -0.0275 -0.7658
vn 0.4138 -0.0000 -0.9104
vn 0.9786 -0.0000 -0.2056
vn -0.7167 0.0114 -0.6973
vn 0.0767 -0.0000 -0.9971
vn 0.8856 0.0409 0.4626
vn -0.9330 0.2152 -0.2885
vn 0.5547 -0.0000 -0.8321
vn -0.1272 -0.0001 0.9919
vn -0.9004 0.4069 -0.1540
vt 0.000091 0.657400
vt 0.000914 0.600010
vt 0.022371 0.548860
vt 0.037656 0.489671
vt 0.036069 0.446694
vt 0.019213 0.389587
vt 0.022437 0.363816
vt 0.024285 0.348509
vt 0.022164 0.342113
vt 0.011905 0.326438
vt 0.000091 0.302335
vt 0.002219 0.279251
vt 0.003777 0.272487
vt 0.020581 0.237363
vt 0.038958 0.213641
vt 0.046609 0.188431
vt 0.042665 0.135980
vt 0.049461 0.059780
vt 0.099967 0.026360
vt 0.147742 0.042933
vt 0.168763 0.058611
vt 0.200768 0.050033
vt 0.238312 0.041292
vt 0.323324 0.013961
vt 0.365606 0.026775
vt 0.405628 0.001679
vt 0.514854 0.000091
vt 0.514353 0.001751
vt 0.575496 0.019397
vt 0.607539 0.045176
vt 0.657297 0.056458
vt 0.691983 0.081441
vt 0.708445 0.139633
vt 0.736455 0.167438
vt 0.735183 0.224604
vt 0.714888 0.259575
vt 0.698359 0.289404
vt 0.708932 0.349561
vt 0.789990 0.363284
vt 0.791810 0.369347
vt 0.807464 0.396169
vt 0.823893 0.408508
vt 0.835576 0.430414
vt 0.831631 0.449401
vt 0.818484 0.498621
vt 0.788762 0.529951
vt 0.768534 0.542149
vt 0.729474 0.555980
vt 0.693629 0.607473
vt 0.699877 0.665282
vt 0.717258 0.693674
vt 0.736815 0.719823
vt 0.763892 0.757440
vt 0.762787 0.779128
vt 0.758546 0.821828
vt 0.737560 0.855869
vt 0.703992 0.887381
vt 0.681762 0.898396
vt 0.629379 0.905194
vt 0.600980 0.942731
vt 0.575359 0.966843
vt 0.538604 0.986458
vt 0.517470 0.988306
vt 0.473045 0.977239
vt 0.454863 0.982723
vt 0.424181 0.994973
vt 0.392343 0.993982
vt 0.337822 0.999909
vt 0.309982 0.988827
vt 0.282317 0.975930
vt 0.280450 0.975282
vt 0.213706 0.977289
vt 0.192255 0.965518
vt 0.166143 0.948259
vt 0.160182 0.931746
vt 0.126568 0.886260
vt 0.127731 0.846175
vt 0.105852 0.828092
vt 0.075754 0.789631
vt 0.044747 0.754673
vt 0.013778 0.714006
vt 0.038709 0.347026
vt 0.046480 0.290087
vt 0.077568 0.245811
vt 0.118212 0.217699
vt 0.161133 0.188266
vt 0.181914 0.164761
vt 0.175540 0.119041
vt 0.211314 0.072060
vt 0.218127 0.055722
vt 0.248309 0.038746
vt 0.273243 0.026652
vt 0.348594 0.029780
vt 0.350766 0.029136
vt 0.382897 0.016573
vt 0.414695 0.005418
vt 0.477867 0.011502
vt 0.514548 0.010350
vt 0.548785 0.023413
vt 0.569559 0.028924
vt 0.620282 0.017594
vt 0.644497 0.019134
vt 0.687067 0.039492
vt 0.715976 0.062990
vt 0.751413 0.108718
vt 0.809482 0.113219
vt 0.834558 0.121282
vt 0.872371 0.149946
vt 0.896331 0.185877
vt 0.900361 0.225853
vt 0.901376 0.247246
vt 0.869954 0.284063
vt 0.847373 0.309747
vt 0.827265 0.338252
vt 0.819529 0.394847
vt 0.860268 0.445787
vt 0.904881 0.459647
vt 0.927975 0.471756
vt 0.961845 0.502767
vt 0.976659 0.551348
vt 0.981083 0.570084
vt 0.967608 0.591634
vt 0.948745 0.603731
vt 0.930845 0.630185
vt 0.928750 0.636159
vt 0.836522 0.649205
vt 0.822694 0.709302
vt 0.841417 0.738804
vt 0.862962 0.774663
vt 0.867219 0.829667
vt 0.834207 0.856868
vt 0.813743 0.914463
vt 0.773753 0.938744
vt 0.716690 0.949428
vt 0.680084 0.975014
vt 0.609326 0.992947
vt 0.609879 0.994582
vt 0.485071 0.991059
vt 0.439637 0.965811
vt 0.389293 0.978809
vt 0.294074 0.950536
vt 0.251181 0.941635
vt 0.214625 0.932936
vt 0.190606 0.948443
vt 0.142321 0.961836
vt 0.082600 0.927141
vt 0.065203 0.856369
vt 0.073948 0.804257
vt 0.067419 0.779112
vt 0.042739 0.756079
vt 0.020973 0.721945
vt 0.020481 0.715079
vt 0.022069 0.691492
vt 0.038003 0.667706
vt 0.049715 0.652483
vt 0.052313 0.646234
vt 0.050473 0.631209
vt 0.039301 0.602008
vt 0.053055 0.543230
vt 0.061230 0.506975
vt 0.047867 0.448487
vt 0.020481 0.398188
vt 0.010479 0.651677
vt 0.012141 0.518807
vt 0.051141 0.514481
vt 0.046945 0.645878
vt 0.248791 0.289511
vt 0.249131 0.299049
vt 0.224196 0.300016
vt 0.223857 0.290477
vt 0.605583 0.286758
vt 0.601893 0.173917
vt 0.641539 0.168849
vt 0.648687 0.283163
vt 0.016229 0.779412
vt 0.053413 0.774376
vt 0.247123 0.242710
vt 0.222188 0.243677
vt 0.603161 0.373737
vt 0.653212 0.375237
vt 0.013462 0.999977
vt 0.049860 0.997705
vt 0.246019 0.211747
vt 0.221084 0.212714
vt 0.600557 0.450084
vt 0.646758 0.450742
vt 0.014284 0.160678
vt 0.000027 0.000027
vt 0.049154 0.001901
vt 0.064918 0.162284
vt 0.244686 0.174334
vt 0.219751 0.175301
vt 0.597980 0.602581
vt 0.638600 0.605381
vt 0.024556 0.325331
vt 0.073624 0.328897
vt 0.243645 0.145111
vt 0.218711 0.146077
vt 0.578871 0.823588
vt 0.645669 0.818021
vt 0.024270 0.336044
vt 0.073320 0.339776
vt 0.240913 0.068337
vt 0.215978 0.069304
vt 0.573436 0.999113
vt 0.631625 0.999972
vt 0.000027 0.695898
vt 0.048262 0.694721
vt 0.238597 0.003256
vt 0.213663 0.004223
vt 0.187850 0.886310
vt 0.204998 0.999973
vt 0.170421 0.986496
vt 0.156730 0.886566
vt 0.007788 0.827979
vt 0.059096 0.829044
vt 0.027132 0.934832
vt 0.026809 0.999981
vt 0.000019 0.999564
vt 0.000341 0.934415
vt 0.187513 0.826295
vt 0.156392 0.826548
vt 0.007075 0.997860
vt 0.059782 0.999973
vt 0.027699 0.820547
vt 0.000909 0.820130
vt 0.187124 0.750463
vt 0.156003 0.750715
vt 0.006204 0.049050
vt 0.000033 0.006103
vt 0.042276 0.000033
vt 0.048611 0.043084
vt 0.028552 0.647502
vt 0.001761 0.647085
vt 0.186677 0.662243
vt 0.155557 0.662495
vt 0.026160 0.187400
vt 0.072822 0.181828
vt 0.034693 0.487496
vt 0.010535 0.488430
vt 0.190787 0.457939
vt 0.163706 0.461368
vt 0.050668 0.283429
vt 0.107542 0.291912
vt 0.029435 0.396153
vt 0.002827 0.396126
vt 0.185964 0.357011
vt 0.154843 0.356881
vt 0.019722 0.997933
vt 0.000033 0.857457
vt 0.067304 0.866404
vt 0.054742 0.999967
vt 0.039863 0.352742
vt 0.108290 0.365968
vt 0.029531 0.306086
vt 0.002739 0.305994
vt 0.186268 0.248897
vt 0.155148 0.248768
vt 0.012660 0.714082
vt 0.060793 0.722842
vt 0.035571 0.473364
vt 0.084166 0.481946
vt 0.029668 0.178249
vt 0.002877 0.178157
vt 0.204998 0.000027
vt 0.177082 0.000629
vt 0.025645 0.588422
vt 0.068038 0.593336
vt 0.029733 0.118351
vt 0.002941 0.118259
vt 0.000000 0.000000
vt 0.028483 0.000019
vt 0.000019 0.006124
vt 0.631274 0.453912
vt 0.636323 0.599281
vt 0.616432 0.597184
vt 0.609317 0.450244
vt 0.030861 0.194259
vt 0.058153 0.000817
vt 0.108138 0.000033
vt 0.085432 0.197188
vt 0.059636 0.833947
vt 0.053479 0.995274
vt 0.011531 0.999974
vt 0.020401 0.830768
vt 0.636323 0.360219
vt 0.614197 0.356382
vt 0.000033 0.407340
vt 0.049112 0.407005
vt 0.064828 0.648010
vt 0.026219 0.653122
vt 0.240423 0.926306
vt 0.238607 1.003223
vt 0.213663 1.002581
vt 0.215479 0.925665
vt 0.020704 0.557387
vt 0.074824 0.536407
vt 0.066848 0.547759
vt 0.028002 0.558620
vt 0.241945 0.861863
vt 0.217001 0.861222
vt 0.056675 0.763987
vt 0.108138 0.747991
vt 0.055364 0.335150
vt 0.000026 0.358738
vt 0.252630 0.771349
vt 0.229536 0.770028
vt 0.040366 0.853992
vt 0.102528 0.857680
vt 0.066848 0.145925
vt 0.027765 0.138713
vt 0.258053 0.712102
vt 0.235824 0.710198
vt 0.035461 0.908073
vt 0.097220 0.911388
vt 0.057618 0.004617
vt 0.015411 0.000026
vt 0.250256 0.626258
vt 0.226190 0.626482
vt 0.032922 0.931670
vt 0.094458 0.934935
vt 0.000023 0.173563
vt 0.011537 0.007218
vt 0.053413 0.000023
vt 0.039023 0.169237
vt 0.250543 0.565286
vt 0.225597 0.564728
vt 0.027022 0.997384
vt 0.089241 0.999967
vt 0.003013 0.258739
vt 0.042012 0.254413
vt 0.251612 0.513870
vt 0.226665 0.513313
vt 0.592896 0.087067
vt 0.573436 0.011704
vt 0.623359 0.000028
vt 0.639545 0.079156
vt 0.009465 0.442558
vt 0.048464 0.438232
vt 0.261542 0.422347
vt 0.244116 0.421391
vt 0.600789 0.153820
vt 0.641394 0.148619
s 0
g Plane_Material.002
usemtl Material.002
f 82/82/2 84/83/2 86/84/2 85/85/2 162/86/2 161/87/2 160/88/2 159/89/2 158/90/2 157/91/2 156/92/2 155/93/2 154/94/2 153/95/2 152/96/2 151/97/2 150/98/2 149/99/2 148/100/2 147/101/2 146/102/2 145/103/2 144/104/2 143/105/2 142/106/2 141/107/2 140/108/2 139/109/2 138/110/2 137/111/2 136/112/2 135/113/2 134/114/2 133/115/2 132/116/2 131/117/2 130/118/2 129/119/2 128/120/2 127/121/2 126/122/2 125/123/2 124/124/2 123/125/2 122/126/2 121/127/2 120/128/2 119/129/2 118/130/2 117/131/2 116/132/2 115/133/2 114/134/2 113/135/2 112/136/2 111/137/2 110/138/2 109/139/2 108/140/2 107/141/2 106/142/2 105/143/2 104/144/2 103/145/2 102/146/2 101/147/2 100/148/2 99/149/2 98/150/2 97/151/2 96/152/2 95/153/2 94/154/2 93/155/2 92/156/2 91/157/2 90/158/2 89/159/2 88/160/2 87/161/2 83/162/2
f 31/271/49 30/271/49 111/271/49 112/271/49
g Plane_Material.003
usemtl Material.003
f 1/1/1 5/2/1 6/3/1 7/4/1 8/5/1 9/6/1 10/7/1 11/8/1 12/9/1 13/10/1 14/11/1 15/12/1 16/13/1 17/14/1 18/15/1 19/16/1 20/17/1 21/18/1 22/19/1 23/20/1 24/21/1 25/22/1 26/23/1 27/24/1 28/25/1 29/26/1 30/27/1 31/28/1 32/29/1 33/30/1 34/31/1 35/32/1 36/33/1 37/34/1 38/35/1 39/36/1 40/37/1 41/38/1 42/39/1 43/40/1 44/41/1 45/42/1 46/43/1 47/44/1 48/45/1 49/46/1 50/47/1 51/48/1 52/49/1 53/50/1 54/51/1 55/52/1 56/53/1 57/54/1 58/55/1 59/56/1 60/57/1 61/58/1 62/59/1 63/60/1 64/61/1 65/62/1 66/63/1 67/64/1 68/65/1 69/66/1 70/67/1 71/68/1 72/69/1 73/70/1 74/71/1 75/72/1 76/73/1 77/74/1 78/75/1 79/76/1 80/77/1 81/78/1 2/79/1 4/80/1 3/81/1
f 69/163/3 68/164/3 149/165/3 150/166/3
f 43/167/4 42/168/4 123/169/4 124/170/4
f 17/171/5 16/172/5 97/173/5 98/174/5
f 70/175/6 69/163/6 150/166/6 151/176/6
f 44/177/7 43/167/7 124/170/7 125/178/7
f 18/179/8 17/171/8 98/174/8 99/180/8
f 71/181/9 70/175/9 151/176/9 152/182/9
f 45/183/10 44/177/10 125/178/10 126/184/10
f 19/185/11 18/179/11 99/180/11 100/186/11
f 72/187/12 71/188/12 152/189/12 153/190/12
f 46/191/13 45/183/13 126/184/13 127/192/13
f 20/193/14 19/185/14 100/186/14 101/194/14
f 73/195/15 72/187/15 153/190/15 154/196/15
f 47/197/16 46/191/16 127/192/16 128/198/16
f 21/199/17 20/193/17 101/194/17 102/200/17
f 74/201/18 73/195/18 154/196/18 155/202/18
f 48/203/19 47/197/19 128/198/19 129/204/19
f 22/205/20 21/199/20 102/200/20 103/206/20
f 75/207/21 74/201/21 155/202/21 156/208/21
f 49/209/22 48/203/22 129/204/22 130/210/22
f 23/211/23 22/212/23 103/213/23 104/214/23
f 76/215/24 75/207/24 156/208/24 157/216/24
f 50/217/25 49/218/25 130/219/25 131/220/25
f 24/221/26 23/211/26 104/214/26 105/222/26
f 77/223/27 76/215/27 157/216/27 158/224/27
f 51/225/28 50/217/28 131/220/28 132/226/28
f 25/227/29 24/221/29 105/222/29 106/228/29
f 78/229/30 77/230/30 158/231/30 159/232/30
f 52/233/31 51/225/31 132/226/31 133/234/31
f 26/235/32 25/227/32 106/228/32 107/236/32
f 79/237/33 78/229/33 159/232/33 160/238/33
f 53/239/34 52/233/34 133/234/34 134/240/34
f 27/241/35 26/235/35 107/236/35 108/242/35
f 80/243/36 79/237/36 160/238/36 161/244/36
f 54/245/37 53/239/37 134/240/37 135/246/37
f 28/247/38 27/241/38 108/242/38 109/248/38
f 5/249/39 1/250/39 82/251/39 83/252/39
f 81/253/40 80/243/40 161/244/40 162/254/40
f 55/255/41 54/245/41 135/246/41 136/256/41
f 29/257/42 28/247/42 109/248/42 110/258/42
f 1/250/43 3/259/43 84/260/43 82/251/43
f 2/261/44 81/253/44 162/254/44 85/262/44
f 56/263/45 55/255/45 136/256/45 137/264/45
f 30/265/46 29/257/46 110/258/46 111/266/46
f 4/267/47 2/261/47 85/262/47 86/268/47
f 57/269/48 56/263/48 137/264/48 138/270/48
f 3/259/50 4/267/50 86/268/50 84/260/50
f 58/272/51 57/269/51 138/270/51 139/273/51
f 32/274/52 31/275/52 112/276/52 113/277/52
f 6/278/53 5/279/53 83/280/53 87/281/53
f 59/282/54 58/283/54 139/284/54 140/285/54
f 33/286/55 32/274/55 113/277/55 114/287/55
f 7/288/56 6/278/56 87/281/56 88/289/56
f 60/290/57 59/282/57 140/285/57 141/291/57
f 34/292/58 33/293/58 114/294/58 115/295/58
f 8/296/59 7/288/59 88/289/59 89/297/59
f 61/298/60 60/290/60 141/291/60 142/299/60
f 35/300/61 34/292/61 115/295/61 116/301/61
f 9/302/62 8/296/62 89/297/62 90/303/62
f 62/304/63 61/298/63 142/299/63 143/305/63
f 36/306/64 35/300/64 116/301/64 117/307/64
f 10/308/65 9/302/65 90/303/65 91/309/65
f 63/310/66 62/304/66 143/305/66 144/311/66
f 37/312/67 36/306/67 117/307/67 118/313/67
f 11/314/68 10/308/68 91/309/68 92/315/68
f 64/316/69 63/310/69 144/311/69 145/317/69
f 38/318/70 37/312/70 118/313/70 119/319/70
f 12/320/71 11/314/71 92/315/71 93/321/71
f 65/322/72 64/323/72 145/324/72 146/325/72
f 39/326/73 38/318/73 119/319/73 120/327/73
f 13/328/74 12/320/74 93/321/74 94/329/74
f 66/330/75 65/322/75 146/325/75 147/331/75
f 40/332/76 39/326/76 120/327/76 121/333/76
f 14/334/77 13/335/77 94/336/77 95/337/77
f 67/338/78 66/330/78 147/331/78 148/339/78
f 41/340/79 40/332/79 121/333/79 122/341/79
f 15/342/80 14/334/80 95/337/80 96/343/80
f 68/164/81 67/338/81 148/339/81 149/165/81
f 42/168/82 41/340/82 122/341/82 123/169/82
f 16/172/83 15/342/83 96/343/83 97/173/83
